<svg width="9.000000" height="15.000000" viewBox="0 0 9 15" fill="none" xmlns="http://www.w3.org/2000/svg" xmlns:xlink="http://www.w3.org/1999/xlink">
	<desc>
			Created with Pixso.
	</desc>
	<defs/>
	<path id="bamboo" d="M7.3 14.34C7.1 13.54 6.5 12.59 6.04 11.58C6.44 12.45 6.83 13.32 7.3 14.34ZM8.42 14.25C7.76 13.16 7.36 11.92 6.96 10.68C6.63 10.32 6.37 10.47 6.1 10.62C5.64 11.07 5.18 11.15 5.71 11.58C6.37 12.67 6.84 13.69 7.17 14.78C7.3 14.71 7.56 14.55 7.7 14.48C7.96 14.33 8.03 14.11 8.42 14.25ZM5.57 10.56C5.37 9.76 4.78 8.81 4.31 7.8C4.71 8.67 5.11 9.54 5.57 10.56ZM3.78 6.63C3.65 5.98 2.98 4.89 2.58 4.01C2.98 4.89 3.31 5.61 3.85 6.78C3.85 6.78 3.85 6.78 3.78 6.63ZM4.9 6.54C4.31 5.6 3.91 4.36 3.44 2.97C3.18 2.76 2.91 2.91 2.65 3.06C2.19 3.51 1.72 3.59 2.25 4.02C2.85 4.96 3.38 6.13 3.72 7.22C3.85 7.14 4.11 6.99 4.24 6.92C4.44 6.62 4.57 6.55 4.9 6.54ZM2.05 2.85C1.92 2.19 1.26 1.11 0.86 0.23C1.26 1.11 1.59 1.83 2.12 3L2.05 2.85ZM3.18 2.76C2.58 1.82 2.18 0.58 1.71 -0.81C1.45 -1.02 1.18 -0.87 0.92 -0.72C0.46 -0.27 -0.07 -0.34 0.53 0.24C1.12 1.18 1.66 2.34 1.99 3.44C2.12 3.36 2.38 3.21 2.45 2.99C2.71 2.84 2.85 2.76 3.18 2.76ZM2.92 6.94C2.39 6.87 2 6.74 1.47 6.67C2 6.74 2.33 6.73 2.92 6.94C2.13 6.66 1.53 6.45 0.81 6.32C1.4 6.53 1.93 6.59 2.72 6.87C1.86 6.44 1.14 6.31 0.48 5.95C1.07 6.16 1.67 6.37 2.53 6.8C1.8 6.3 1 6.02 0.21 5.74C1 6.02 1.86 6.44 2.92 6.94ZM2.66 7.09C2.66 7.09 2.53 7.17 2.46 7.02C1.47 7.04 0.61 6.98 -0.18 7.06C0.54 7.2 1.34 7.11 2.13 7.03C1.34 7.11 0.68 7.12 0.08 7.28C0.74 7.27 1.54 7.18 2.33 7.1C1.67 7.11 1.07 7.26 0.48 7.42C1.27 7.33 1.87 7.18 2.53 7.17C2.06 7.25 1.6 7.33 1.14 7.41C1.6 7.33 2.06 7.25 2.53 7.17C2.66 7.09 2.66 7.09 2.66 7.09ZM3.06 7.96C2.79 8.11 2.6 8.41 2.2 8.64C2.46 8.49 2.66 8.19 3.06 7.96C2.66 8.19 2.2 8.64 1.8 8.86C2.2 8.64 2.53 8.26 2.92 8.04C2.4 8.34 1.87 8.64 1.41 9.09C1.74 8.72 2.27 8.41 2.79 8.11C2.27 8.41 1.74 8.72 1.21 9.02C1.74 8.72 2.33 8.19 2.99 7.82C3.12 7.74 3.19 7.89 3.06 7.96ZM3.12 8.11C2.99 8.18 2.99 8.18 2.99 8.18C2.46 8.85 2.07 9.44 1.81 9.96C2.07 9.44 2.46 8.85 2.79 8.48C2.53 9 2.2 9.37 1.94 9.89C2.2 9.37 2.6 8.78 2.86 8.26C2.6 8.78 2.46 9.22 2.27 9.51C2.46 9.22 2.73 8.7 2.99 8.18C2.86 8.62 2.66 8.92 2.6 9.14C2.79 8.85 2.79 8.48 2.99 8.18L3.12 8.11ZM3.45 7.74C3.58 7.66 3.58 7.66 3.72 7.59C3.78 7.73 3.78 7.73 3.98 7.8C4.64 8.89 5.11 9.91 5.44 11C5.57 10.92 5.84 10.77 5.97 10.7C6.17 10.4 6.3 10.33 6.63 10.32C6.03 9.38 5.63 8.14 5.17 6.76C4.9 6.54 4.64 6.69 4.37 6.84C4.05 7.21 3.72 7.22 3.65 7.44C3.58 7.29 3.38 7.22 3.32 7.08C3.25 6.93 3.05 6.86 2.72 6.5C1.86 6.08 0.47 5.59 -0.25 5.45C-0.05 5.89 1 6.38 1.86 6.81C1.01 6.75 -0.12 6.84 -0.78 7.22C-0.12 7.58 2.33 7.46 3.05 7.23C3.05 7.23 3.19 7.16 3.25 7.3C3.45 7.37 3.65 7.44 3.72 7.59C3.58 7.66 3.45 7.74 3.25 7.67C3.25 7.67 3.12 7.74 2.86 7.89C2.13 8.12 1.27 8.8 0.81 9.25C1.21 9.38 2 8.93 2.6 8.41C2.2 9 1.74 9.82 1.48 10.33C2.07 10.18 3.12 8.47 3.19 7.89C3.32 7.81 3.32 7.81 3.45 7.74Z" fill="#FFFFFF" fill-opacity="1.000000" fill-rule="evenodd"/>
	<path id="bamboo" d="M0.53 0.24C0.11 -0.17 0.25 -0.25 0.53 -0.43C0.65 -0.5 0.79 -0.59 0.92 -0.72C1.18 -0.87 1.45 -1.02 1.71 -0.81C1.74 -0.73 1.77 -0.65 1.79 -0.58C2.02 0.11 2.24 0.76 2.48 1.35C2.55 1.52 2.62 1.68 2.69 1.84C2.71 1.88 2.72 1.92 2.74 1.96C2.76 1.99 2.77 2.02 2.78 2.05C2.91 2.3 3.04 2.54 3.18 2.76C3 2.76 2.89 2.78 2.78 2.83C2.67 2.86 2.58 2.92 2.45 2.99C2.43 3.07 2.38 3.14 2.32 3.2C2.22 3.31 2.07 3.39 1.99 3.44C1.96 3.34 1.92 3.23 1.89 3.13C1.83 2.96 1.77 2.79 1.71 2.63C1.7 2.6 1.69 2.57 1.68 2.54C1.67 2.54 1.67 2.53 1.67 2.53C1.67 2.51 1.66 2.5 1.65 2.48C1.36 1.75 1 1.01 0.61 0.37C0.58 0.33 0.56 0.28 0.53 0.24ZM1.85 2.25C1.88 2.32 1.91 2.39 1.93 2.45C1.94 2.47 1.94 2.48 1.95 2.49C1.99 2.62 2.03 2.74 2.05 2.85L0.86 0.23C0.88 0.29 0.91 0.35 0.94 0.41C0.94 0.41 0.94 0.42 0.95 0.42C1.06 0.66 1.19 0.91 1.31 1.15C1.43 1.37 1.54 1.59 1.64 1.8C1.72 1.96 1.79 2.1 1.85 2.25ZM2.41 3.27C2.45 3.24 2.49 3.2 2.53 3.17C2.57 3.13 2.61 3.1 2.65 3.06L2.66 3.05C2.72 3.02 2.77 2.99 2.82 2.97C2.88 2.94 2.94 2.91 3 2.89C3.15 2.85 3.29 2.86 3.44 2.97C3.47 3.05 3.49 3.13 3.52 3.21C3.58 3.38 3.64 3.56 3.7 3.74C3.86 4.23 4.03 4.69 4.2 5.13C4.27 5.3 4.34 5.47 4.42 5.63C4.44 5.67 4.45 5.71 4.47 5.74C4.48 5.77 4.5 5.8 4.51 5.83C4.63 6.08 4.76 6.32 4.9 6.54C4.73 6.54 4.61 6.57 4.51 6.63C4.46 6.66 4.41 6.7 4.36 6.76C4.35 6.77 4.34 6.79 4.33 6.8C4.32 6.81 4.3 6.83 4.29 6.86C4.28 6.86 4.28 6.86 4.28 6.86C4.27 6.88 4.26 6.9 4.24 6.92L3.72 7.22C3.7 7.17 3.68 7.12 3.67 7.06C3.66 7.04 3.65 7.01 3.64 6.98C3.63 6.96 3.62 6.93 3.62 6.91C3.59 6.85 3.57 6.78 3.55 6.72L3.55 6.72C3.53 6.67 3.52 6.63 3.5 6.58C3.48 6.52 3.45 6.45 3.43 6.39C3.42 6.36 3.41 6.33 3.4 6.31C3.39 6.29 3.38 6.27 3.37 6.24C3.35 6.19 3.33 6.14 3.31 6.08C3.3 6.06 3.29 6.04 3.28 6.01C3.22 5.87 3.16 5.72 3.09 5.58C2.89 5.13 2.66 4.69 2.42 4.28C2.39 4.24 2.36 4.2 2.34 4.16C2.31 4.11 2.28 4.06 2.25 4.02C1.86 3.7 2.02 3.57 2.32 3.34C2.34 3.32 2.36 3.31 2.38 3.29C2.39 3.28 2.4 3.28 2.41 3.27ZM3.78 6.63L2.58 4.01C2.6 4.06 2.62 4.1 2.64 4.14C2.76 4.4 2.9 4.66 3.04 4.94C3.15 5.15 3.27 5.37 3.37 5.58C3.43 5.7 3.48 5.82 3.54 5.94C3.57 6.02 3.61 6.1 3.64 6.17C3.64 6.18 3.64 6.18 3.64 6.19C3.65 6.21 3.66 6.22 3.66 6.24C3.67 6.25 3.67 6.26 3.67 6.28C3.69 6.31 3.7 6.35 3.71 6.39C3.72 6.4 3.72 6.41 3.72 6.41C3.74 6.47 3.75 6.51 3.76 6.56C3.77 6.59 3.77 6.61 3.78 6.63ZM3.42 7.2C3.5 7.28 3.61 7.34 3.65 7.44C3.68 7.34 3.76 7.29 3.87 7.22C3.94 7.18 4.02 7.14 4.11 7.08C4.13 7.07 4.14 7.05 4.16 7.04C4.22 7 4.27 6.95 4.33 6.89C4.33 6.89 4.34 6.88 4.34 6.88C4.35 6.87 4.36 6.86 4.37 6.84C4.37 6.84 4.37 6.84 4.37 6.84L4.4 6.83C4.45 6.8 4.5 6.77 4.55 6.75C4.61 6.72 4.67 6.69 4.73 6.67C4.88 6.63 5.02 6.64 5.17 6.76C5.19 6.83 5.22 6.91 5.24 6.99C5.3 7.17 5.36 7.34 5.42 7.52C5.59 8.02 5.76 8.5 5.94 8.94C6.01 9.1 6.08 9.26 6.14 9.41C6.16 9.45 6.18 9.49 6.2 9.53C6.22 9.58 6.25 9.63 6.27 9.68C6.38 9.9 6.5 10.12 6.63 10.32C6.46 10.32 6.34 10.35 6.24 10.41C6.14 10.47 6.06 10.56 5.97 10.7L5.44 11C5.42 10.92 5.39 10.83 5.36 10.75C5.35 10.71 5.34 10.68 5.33 10.64C5.28 10.49 5.22 10.34 5.16 10.19C5.15 10.16 5.14 10.12 5.13 10.09C4.9 9.52 4.64 8.95 4.32 8.38C4.26 8.27 4.2 8.17 4.14 8.07C4.12 8.04 4.11 8.01 4.09 7.99C4.09 7.97 4.08 7.96 4.07 7.95C4.07 7.95 4.07 7.94 4.06 7.94C4.06 7.92 4.05 7.91 4.04 7.9C4.02 7.87 4 7.83 3.98 7.8C3.78 7.73 3.78 7.73 3.72 7.59L3.19 7.89C3.18 7.95 3.16 8.03 3.13 8.12C3.12 8.15 3.11 8.17 3.11 8.2C3.1 8.2 3.1 8.21 3.1 8.21C3.1 8.22 3.1 8.22 3.1 8.22C3.09 8.23 3.09 8.23 3.09 8.24C3.09 8.24 3.09 8.25 3.08 8.25C3.08 8.26 3.08 8.26 3.08 8.26C3.08 8.27 3.07 8.28 3.07 8.29C3.07 8.29 3.07 8.29 3.07 8.29C3.07 8.29 3.07 8.3 3.07 8.3C3.06 8.31 3.06 8.32 3.05 8.32C3.05 8.33 3.05 8.33 3.05 8.34C3.05 8.34 3.04 8.35 3.04 8.36C3.04 8.36 3.04 8.37 3.03 8.37C3.02 8.4 3.01 8.43 2.99 8.46C2.99 8.48 2.98 8.49 2.97 8.51C2.96 8.53 2.95 8.55 2.94 8.57C2.94 8.57 2.94 8.57 2.94 8.58C2.93 8.59 2.93 8.6 2.92 8.61C2.9 8.66 2.87 8.7 2.85 8.75C2.84 8.75 2.84 8.76 2.84 8.76C2.8 8.84 2.75 8.92 2.71 9C2.68 9.05 2.64 9.1 2.61 9.15C2.59 9.18 2.57 9.21 2.55 9.24C2.54 9.26 2.53 9.27 2.52 9.29C2.52 9.29 2.51 9.3 2.51 9.31C2.48 9.34 2.46 9.37 2.44 9.41C2.43 9.42 2.42 9.44 2.41 9.45C2.4 9.46 2.39 9.47 2.38 9.48C2.37 9.51 2.35 9.53 2.33 9.56C2.29 9.62 2.24 9.67 2.2 9.73C2.14 9.8 2.08 9.87 2.02 9.93C2.01 9.94 2 9.95 2 9.96C1.97 9.98 1.95 10 1.93 10.03C1.76 10.19 1.61 10.3 1.48 10.33C1.51 10.27 1.54 10.21 1.58 10.14C1.62 10.06 1.66 9.99 1.7 9.9C1.72 9.87 1.74 9.83 1.77 9.79L1.77 9.79C1.77 9.79 1.77 9.79 1.77 9.78C1.8 9.74 1.82 9.69 1.85 9.64C1.86 9.62 1.87 9.6 1.89 9.58C1.9 9.56 1.91 9.54 1.92 9.52C1.95 9.46 1.99 9.4 2.02 9.34C2.02 9.34 2.02 9.34 2.02 9.33C2.07 9.26 2.11 9.18 2.16 9.1C2.2 9.04 2.24 8.97 2.28 8.91C2.29 8.89 2.3 8.88 2.3 8.87C2.37 8.77 2.43 8.67 2.49 8.57C2.52 8.52 2.56 8.46 2.6 8.41C2.55 8.45 2.5 8.49 2.45 8.53C2.38 8.59 2.3 8.65 2.23 8.7C2.19 8.73 2.15 8.76 2.12 8.79C2.03 8.84 1.94 8.9 1.86 8.95L1.85 8.96C1.78 9 1.72 9.03 1.66 9.06C1.6 9.09 1.54 9.12 1.49 9.14C1.48 9.14 1.48 9.15 1.47 9.15C1.45 9.16 1.44 9.16 1.43 9.17C1.38 9.19 1.34 9.2 1.3 9.21C1.29 9.22 1.27 9.22 1.26 9.22C1.26 9.22 1.26 9.23 1.26 9.23C1.22 9.24 1.19 9.25 1.15 9.25L1.15 9.25C1.11 9.26 1.06 9.27 1.01 9.27C0.94 9.27 0.87 9.27 0.81 9.25C0.91 9.15 1.03 9.04 1.17 8.93C1.18 8.92 1.18 8.91 1.19 8.91C1.2 8.9 1.22 8.88 1.23 8.87C1.24 8.87 1.24 8.87 1.25 8.86C1.34 8.79 1.43 8.71 1.53 8.64L1.53 8.64C1.57 8.61 1.61 8.58 1.65 8.55C1.65 8.55 1.66 8.55 1.66 8.54C1.68 8.53 1.7 8.51 1.72 8.5C1.74 8.49 1.75 8.48 1.77 8.47C1.79 8.45 1.82 8.43 1.85 8.41C1.86 8.41 1.87 8.4 1.87 8.39C1.9 8.38 1.92 8.37 1.94 8.35C1.95 8.35 1.95 8.34 1.96 8.34C1.98 8.32 2.01 8.31 2.04 8.29C2.05 8.28 2.06 8.27 2.07 8.27C2.1 8.25 2.13 8.24 2.15 8.22C2.18 8.2 2.21 8.19 2.23 8.17L2.25 8.17L2.26 8.16L2.26 8.16C2.31 8.13 2.35 8.11 2.4 8.09C2.41 8.08 2.43 8.07 2.44 8.06C2.45 8.06 2.45 8.06 2.46 8.06C2.46 8.05 2.47 8.05 2.47 8.05C2.48 8.04 2.49 8.04 2.49 8.04L2.5 8.04C2.51 8.03 2.52 8.02 2.54 8.02C2.56 8.01 2.57 8 2.59 8C2.59 7.99 2.6 7.99 2.61 7.99C2.61 7.98 2.62 7.98 2.62 7.98C2.64 7.97 2.66 7.96 2.68 7.95C2.69 7.95 2.7 7.95 2.71 7.94C2.72 7.94 2.72 7.94 2.72 7.94C2.73 7.94 2.75 7.93 2.76 7.93C2.79 7.91 2.83 7.9 2.86 7.89L3.25 7.67C3.45 7.74 3.58 7.66 3.72 7.59C3.68 7.5 3.6 7.44 3.5 7.4C3.42 7.36 3.34 7.33 3.25 7.3C3.19 7.16 3.05 7.23 3.05 7.23C3.04 7.23 3.03 7.24 3.02 7.24C3.01 7.24 3 7.25 2.99 7.25C2.98 7.25 2.97 7.25 2.97 7.26C2.91 7.27 2.86 7.28 2.8 7.29C2.79 7.3 2.77 7.3 2.76 7.3C2.76 7.3 2.76 7.3 2.76 7.3C2.76 7.3 2.76 7.3 2.75 7.3C2.74 7.3 2.73 7.31 2.72 7.31C2.68 7.32 2.64 7.32 2.6 7.33C2.6 7.33 2.59 7.33 2.59 7.33C2.58 7.33 2.56 7.34 2.54 7.34C2.54 7.34 2.53 7.34 2.52 7.34C2.51 7.34 2.51 7.34 2.5 7.34C2.48 7.35 2.47 7.35 2.45 7.35C2.45 7.35 2.45 7.35 2.44 7.35C2.42 7.35 2.4 7.36 2.38 7.36C2.38 7.36 2.37 7.36 2.37 7.36C2.36 7.36 2.34 7.37 2.33 7.37C2.33 7.37 2.32 7.37 2.32 7.37L2.32 7.37C2.31 7.37 2.3 7.37 2.29 7.37C2.29 7.37 2.28 7.37 2.28 7.37C2.27 7.37 2.27 7.37 2.26 7.37C2.25 7.37 2.25 7.37 2.25 7.38C2.25 7.38 2.25 7.38 2.24 7.38C2.23 7.38 2.22 7.38 2.22 7.38C2.21 7.38 2.21 7.38 2.21 7.38C2.2 7.38 2.18 7.38 2.17 7.38C2.16 7.38 2.16 7.38 2.16 7.38L2.16 7.38L2.16 7.39C2.15 7.39 2.15 7.39 2.15 7.39C2.06 7.4 1.97 7.4 1.89 7.41C1.88 7.41 1.87 7.41 1.86 7.41C1.83 7.41 1.8 7.42 1.76 7.42C1.73 7.42 1.7 7.42 1.66 7.42C1.66 7.42 1.65 7.43 1.64 7.43C1.64 7.43 1.63 7.43 1.63 7.43C1.61 7.43 1.59 7.43 1.58 7.43C1.56 7.43 1.55 7.43 1.54 7.43C1.53 7.43 1.52 7.43 1.5 7.43C1.45 7.44 1.4 7.44 1.35 7.44C1.32 7.44 1.3 7.44 1.27 7.44C1.23 7.44 1.19 7.44 1.14 7.45C1.14 7.45 1.13 7.45 1.12 7.45C1.06 7.45 0.99 7.45 0.92 7.45C0.77 7.45 0.62 7.44 0.48 7.44C0.46 7.44 0.44 7.44 0.42 7.44C0.31 7.43 0.21 7.42 0.11 7.41C0.07 7.41 0.03 7.41 -0.01 7.4C-0.07 7.4 -0.12 7.39 -0.17 7.38C-0.22 7.38 -0.28 7.37 -0.33 7.36C-0.52 7.32 -0.67 7.28 -0.78 7.22C-0.64 7.14 -0.48 7.07 -0.3 7.02C-0.26 7 -0.21 6.99 -0.16 6.98C-0.13 6.97 -0.09 6.96 -0.05 6.95C-0.04 6.94 -0.03 6.94 -0.02 6.94C0.02 6.93 0.06 6.92 0.1 6.91C0.11 6.91 0.13 6.91 0.15 6.9C0.16 6.9 0.16 6.9 0.17 6.9C0.23 6.89 0.29 6.88 0.35 6.87C0.36 6.87 0.37 6.87 0.37 6.87C0.38 6.86 0.39 6.86 0.4 6.86C0.42 6.86 0.43 6.86 0.45 6.85C0.5 6.85 0.55 6.84 0.6 6.84C0.63 6.83 0.67 6.83 0.7 6.83C0.76 6.82 0.81 6.82 0.87 6.81C0.94 6.81 1.01 6.8 1.08 6.8C1.2 6.79 1.33 6.79 1.45 6.79C1.59 6.8 1.73 6.8 1.86 6.81C1.79 6.77 1.71 6.73 1.62 6.69C1.57 6.68 1.52 6.68 1.47 6.67C1.52 6.68 1.57 6.68 1.62 6.69C1.57 6.66 1.52 6.64 1.48 6.62C1.37 6.57 1.26 6.51 1.16 6.46C1.14 6.45 1.12 6.44 1.09 6.43C1.06 6.41 1.04 6.4 1.01 6.38C0.99 6.38 0.98 6.37 0.96 6.37C0.92 6.36 0.88 6.34 0.84 6.33C0.83 6.32 0.82 6.32 0.81 6.32C0.82 6.32 0.84 6.32 0.85 6.32C0.88 6.33 0.9 6.33 0.92 6.34C0.91 6.33 0.9 6.32 0.88 6.32C0.86 6.31 0.84 6.29 0.82 6.28C0.81 6.28 0.79 6.27 0.78 6.26C0.77 6.26 0.77 6.25 0.76 6.25C0.72 6.23 0.68 6.21 0.64 6.18C0.62 6.17 0.6 6.16 0.58 6.15C0.53 6.12 0.48 6.09 0.44 6.06C0.42 6.06 0.41 6.05 0.4 6.04C0.39 6.04 0.38 6.03 0.38 6.03C0.31 5.99 0.25 5.95 0.2 5.91C0.18 5.9 0.17 5.89 0.16 5.88C-0.04 5.74 -0.19 5.59 -0.25 5.45C-0.1 5.48 0.07 5.52 0.27 5.58C0.35 5.6 0.44 5.63 0.53 5.65C0.56 5.66 0.59 5.67 0.61 5.68C0.7 5.71 0.8 5.74 0.89 5.77C0.92 5.78 0.95 5.79 0.99 5.8C1 5.81 1.02 5.81 1.04 5.82C1.21 5.88 1.39 5.94 1.57 6.01C1.59 6.02 1.61 6.03 1.64 6.04C1.67 6.05 1.71 6.06 1.75 6.08C1.75 6.08 1.75 6.08 1.75 6.08C1.8 6.1 1.85 6.12 1.9 6.14C1.91 6.14 1.92 6.15 1.93 6.15L1.94 6.15C1.98 6.17 2.03 6.19 2.07 6.21C2.08 6.21 2.09 6.22 2.09 6.22C2.11 6.23 2.13 6.23 2.15 6.24C2.16 6.25 2.17 6.25 2.19 6.26C2.19 6.26 2.19 6.26 2.2 6.26C2.23 6.28 2.26 6.29 2.29 6.3C2.29 6.3 2.3 6.31 2.3 6.31C2.32 6.32 2.34 6.33 2.36 6.33C2.37 6.34 2.39 6.34 2.4 6.35C2.41 6.36 2.42 6.36 2.43 6.37C2.44 6.37 2.44 6.37 2.44 6.37C2.48 6.39 2.52 6.4 2.55 6.42C2.59 6.44 2.63 6.46 2.67 6.48C2.67 6.48 2.67 6.48 2.67 6.48C2.69 6.49 2.71 6.5 2.72 6.5C2.73 6.51 2.74 6.52 2.74 6.52C2.75 6.54 2.76 6.55 2.77 6.56C2.79 6.57 2.8 6.59 2.82 6.6C2.83 6.62 2.85 6.63 2.87 6.65C2.89 6.67 2.91 6.7 2.94 6.72C2.94 6.72 2.95 6.73 2.95 6.73C2.96 6.74 2.96 6.74 2.96 6.74C2.97 6.75 2.98 6.75 2.98 6.76C2.99 6.76 2.99 6.76 2.99 6.76C3.01 6.78 3.03 6.8 3.05 6.81C3.06 6.82 3.07 6.83 3.09 6.84C3.09 6.85 3.09 6.85 3.09 6.85C3.21 6.94 3.28 7 3.32 7.08C3.32 7.08 3.32 7.09 3.33 7.09C3.35 7.14 3.38 7.17 3.42 7.2ZM2.88 6.93C2.84 6.93 2.8 6.92 2.76 6.92C2.74 6.91 2.72 6.91 2.71 6.91C2.7 6.91 2.69 6.91 2.69 6.91C2.68 6.9 2.68 6.9 2.68 6.9C2.66 6.9 2.64 6.9 2.61 6.89C2.6 6.89 2.58 6.89 2.56 6.88C2.56 6.88 2.55 6.88 2.55 6.88L2.55 6.88C2.54 6.88 2.54 6.88 2.54 6.88C2.52 6.87 2.51 6.87 2.5 6.87C2.49 6.87 2.49 6.87 2.48 6.87C2.45 6.86 2.43 6.86 2.4 6.85C2.39 6.85 2.39 6.85 2.38 6.85C2.37 6.84 2.37 6.84 2.37 6.84C2.35 6.84 2.33 6.83 2.32 6.83C2.25 6.82 2.18 6.8 2.12 6.79C2.09 6.78 2.07 6.78 2.04 6.77C1.99 6.76 1.93 6.75 1.87 6.74C1.79 6.72 1.71 6.7 1.62 6.69L1.62 6.69C1.71 6.7 1.79 6.7 1.87 6.71C1.93 6.72 1.99 6.73 2.05 6.73C2.07 6.74 2.1 6.74 2.12 6.74C2.18 6.75 2.25 6.76 2.31 6.77C2.33 6.78 2.34 6.78 2.35 6.78C2.36 6.78 2.36 6.78 2.37 6.78C2.39 6.79 2.42 6.79 2.44 6.8C2.46 6.8 2.47 6.81 2.49 6.81C2.5 6.81 2.51 6.82 2.51 6.82C2.52 6.82 2.53 6.82 2.54 6.82C2.54 6.82 2.54 6.82 2.54 6.82C2.55 6.83 2.56 6.83 2.57 6.83C2.57 6.83 2.57 6.83 2.58 6.83C2.58 6.83 2.59 6.84 2.59 6.84C2.63 6.85 2.68 6.86 2.72 6.87C2.72 6.87 2.73 6.87 2.73 6.88C2.73 6.88 2.74 6.88 2.74 6.88C2.75 6.88 2.76 6.89 2.77 6.89C2.8 6.9 2.84 6.91 2.87 6.92C2.88 6.92 2.88 6.93 2.89 6.93C2.89 6.93 2.89 6.93 2.89 6.93C2.9 6.93 2.91 6.94 2.92 6.94C2.91 6.94 2.9 6.93 2.89 6.93C2.89 6.93 2.89 6.93 2.89 6.93C2.88 6.92 2.88 6.92 2.87 6.92C2.84 6.91 2.8 6.9 2.77 6.89C2.76 6.88 2.76 6.88 2.75 6.88C2.74 6.88 2.74 6.87 2.73 6.87C2.73 6.87 2.73 6.87 2.72 6.87C2.71 6.86 2.69 6.86 2.68 6.85C2.65 6.84 2.62 6.83 2.59 6.82C2.59 6.82 2.58 6.82 2.58 6.82C2.58 6.82 2.58 6.82 2.58 6.82C2.56 6.81 2.55 6.81 2.54 6.81C2.53 6.8 2.53 6.8 2.53 6.8C2.53 6.8 2.52 6.8 2.52 6.8C2.51 6.8 2.5 6.79 2.49 6.79C2.48 6.79 2.47 6.78 2.46 6.78C2.43 6.77 2.4 6.76 2.37 6.75C2.35 6.75 2.34 6.74 2.33 6.74C2.33 6.74 2.32 6.74 2.31 6.74C2.24 6.71 2.18 6.7 2.11 6.68C2.1 6.67 2.09 6.67 2.07 6.67C2.01 6.65 1.95 6.63 1.89 6.62C1.75 6.58 1.62 6.55 1.49 6.52C1.42 6.5 1.34 6.48 1.27 6.46C1.22 6.45 1.18 6.43 1.13 6.42C1.09 6.41 1.05 6.39 1.01 6.38C1 6.38 0.99 6.37 0.98 6.37C0.96 6.36 0.94 6.35 0.92 6.34C0.96 6.34 0.99 6.35 1.03 6.36C1.09 6.37 1.16 6.39 1.22 6.4C1.29 6.42 1.36 6.44 1.42 6.45C1.45 6.46 1.47 6.47 1.5 6.47C1.63 6.51 1.76 6.55 1.89 6.59C1.95 6.61 2.01 6.63 2.08 6.65C2.09 6.65 2.1 6.66 2.11 6.66C2.18 6.68 2.24 6.7 2.31 6.73C2.32 6.73 2.32 6.73 2.33 6.73C2.34 6.74 2.35 6.74 2.37 6.75C2.4 6.76 2.43 6.77 2.46 6.78C2.47 6.78 2.48 6.78 2.49 6.79C2.5 6.79 2.51 6.8 2.52 6.8L2.53 6.8C2.53 6.8 2.53 6.8 2.54 6.8C2.55 6.81 2.56 6.81 2.58 6.82C2.58 6.82 2.58 6.82 2.58 6.82C2.58 6.82 2.59 6.82 2.59 6.82C2.62 6.83 2.65 6.84 2.68 6.85C2.69 6.86 2.71 6.86 2.72 6.87C2.68 6.85 2.63 6.83 2.59 6.81C2.59 6.8 2.59 6.8 2.58 6.8C2.58 6.8 2.58 6.8 2.58 6.8C2.57 6.79 2.55 6.79 2.54 6.78C2.54 6.78 2.54 6.78 2.53 6.78C2.53 6.78 2.52 6.77 2.51 6.77C2.5 6.76 2.49 6.76 2.48 6.76L2.48 6.76C2.46 6.75 2.44 6.74 2.42 6.73C2.44 6.74 2.46 6.75 2.48 6.77C2.48 6.77 2.48 6.77 2.49 6.77C2.5 6.78 2.51 6.79 2.53 6.8C2.51 6.79 2.5 6.79 2.49 6.78C2.48 6.78 2.48 6.78 2.47 6.77C2.43 6.75 2.4 6.74 2.37 6.72C2.35 6.71 2.33 6.7 2.31 6.7L2.31 6.69C2.24 6.66 2.18 6.63 2.11 6.6C2.11 6.6 2.1 6.6 2.1 6.59C2.09 6.59 2.09 6.59 2.09 6.59C2.03 6.57 1.96 6.54 1.9 6.52C1.82 6.49 1.75 6.47 1.68 6.44C1.62 6.42 1.57 6.4 1.51 6.38C1.5 6.37 1.48 6.37 1.46 6.36C1.41 6.35 1.37 6.33 1.32 6.31C1.27 6.29 1.21 6.27 1.16 6.25C1.14 6.25 1.13 6.24 1.11 6.24C1.04 6.21 0.97 6.18 0.9 6.16C0.9 6.15 0.89 6.15 0.88 6.15C0.88 6.14 0.87 6.14 0.87 6.14C0.84 6.13 0.82 6.12 0.8 6.11C0.74 6.08 0.69 6.06 0.63 6.03C0.58 6.01 0.53 5.98 0.48 5.95C0.55 5.98 0.62 6.01 0.7 6.03C0.73 6.04 0.77 6.06 0.81 6.07C0.83 6.08 0.86 6.09 0.88 6.1C0.92 6.11 0.96 6.13 1 6.14C1 6.14 1 6.14 1.01 6.14C1.08 6.17 1.15 6.2 1.22 6.23C1.23 6.23 1.24 6.23 1.25 6.24C1.3 6.26 1.35 6.28 1.41 6.3C1.44 6.31 1.48 6.33 1.52 6.34C1.52 6.35 1.53 6.35 1.53 6.35C1.6 6.38 1.67 6.41 1.74 6.44C1.79 6.46 1.84 6.48 1.9 6.5C1.96 6.53 2.03 6.56 2.09 6.59C2.09 6.59 2.09 6.59 2.1 6.59C2.1 6.6 2.11 6.6 2.11 6.6C2.17 6.62 2.24 6.65 2.3 6.68C2.31 6.68 2.31 6.68 2.31 6.68C2.33 6.69 2.35 6.7 2.37 6.7C2.38 6.71 2.4 6.72 2.42 6.73C2.4 6.72 2.38 6.7 2.37 6.69C2.35 6.68 2.33 6.67 2.31 6.66C2.3 6.65 2.29 6.65 2.29 6.65C2.28 6.64 2.27 6.63 2.26 6.63C2.21 6.6 2.16 6.58 2.11 6.56C2.11 6.56 2.1 6.55 2.1 6.55C2.04 6.52 1.97 6.49 1.9 6.46C1.88 6.45 1.86 6.44 1.84 6.43C1.77 6.4 1.7 6.36 1.63 6.33C1.6 6.32 1.56 6.3 1.53 6.29C1.52 6.28 1.52 6.28 1.52 6.28C1.47 6.26 1.42 6.24 1.37 6.21C1.37 6.21 1.37 6.21 1.36 6.21C1.3 6.18 1.24 6.16 1.18 6.13C1.18 6.13 1.18 6.13 1.18 6.13C1.1 6.09 1.03 6.06 0.95 6.03C0.94 6.02 0.93 6.02 0.91 6.01C0.88 6 0.86 5.99 0.83 5.98C0.73 5.94 0.63 5.9 0.53 5.86C0.53 5.86 0.53 5.86 0.52 5.86C0.5 5.85 0.48 5.84 0.46 5.83C0.37 5.8 0.29 5.77 0.21 5.74C0.29 5.77 0.38 5.8 0.46 5.83C0.48 5.83 0.5 5.84 0.53 5.85C0.53 5.85 0.54 5.85 0.54 5.86C0.64 5.89 0.74 5.93 0.84 5.96C0.86 5.97 0.89 5.98 0.92 6C0.95 6.01 0.98 6.02 1.01 6.03C1.09 6.06 1.17 6.09 1.24 6.12C1.24 6.12 1.25 6.12 1.25 6.13C1.31 6.15 1.37 6.18 1.43 6.2C1.43 6.2 1.43 6.2 1.43 6.2C1.47 6.22 1.5 6.23 1.53 6.25C1.55 6.26 1.57 6.26 1.58 6.27C1.62 6.29 1.66 6.3 1.69 6.32C1.76 6.36 1.83 6.39 1.9 6.42C1.9 6.43 1.9 6.43 1.91 6.43C1.97 6.46 2.04 6.5 2.11 6.54L2.11 6.54C2.16 6.57 2.21 6.6 2.26 6.63C2.27 6.63 2.28 6.64 2.29 6.64C2.29 6.64 2.3 6.65 2.31 6.65C2.33 6.66 2.35 6.67 2.37 6.68C2.4 6.7 2.44 6.71 2.48 6.73C2.49 6.74 2.49 6.74 2.5 6.74L2.5 6.74C2.51 6.75 2.53 6.75 2.54 6.76C2.54 6.76 2.54 6.76 2.54 6.76C2.55 6.77 2.56 6.77 2.57 6.77C2.58 6.78 2.58 6.78 2.59 6.78C2.59 6.79 2.6 6.79 2.6 6.79C2.64 6.81 2.69 6.83 2.73 6.85C2.74 6.85 2.75 6.86 2.75 6.86C2.76 6.86 2.77 6.87 2.77 6.87C2.77 6.87 2.78 6.87 2.78 6.87C2.81 6.89 2.84 6.9 2.87 6.91C2.87 6.92 2.88 6.92 2.89 6.92C2.89 6.92 2.89 6.92 2.89 6.93C2.9 6.93 2.91 6.93 2.92 6.94C2.91 6.94 2.9 6.94 2.89 6.94C2.89 6.94 2.89 6.93 2.88 6.93C2.88 6.93 2.88 6.93 2.88 6.93ZM1.97 7.02C2.02 7.02 2.08 7.02 2.13 7.02C2.16 7.02 2.2 7.02 2.23 7.02C2.26 7.02 2.29 7.02 2.32 7.02C2.34 7.02 2.35 7.02 2.37 7.02C2.37 7.02 2.38 7.02 2.39 7.02C2.4 7.02 2.42 7.02 2.44 7.02C2.45 7.02 2.45 7.02 2.46 7.02L2.46 7.03L2.46 7.03L2.47 7.03C2.47 7.04 2.47 7.04 2.47 7.04C2.49 7.07 2.5 7.08 2.52 7.09C2.52 7.09 2.52 7.1 2.53 7.1C2.56 7.11 2.59 7.11 2.61 7.11C2.64 7.1 2.66 7.09 2.66 7.09L2.53 7.17C2.5 7.17 2.48 7.17 2.45 7.17C2.44 7.17 2.43 7.17 2.41 7.17C2.41 7.17 2.4 7.17 2.39 7.17C2.38 7.17 2.38 7.17 2.37 7.17C2.35 7.17 2.34 7.17 2.33 7.17C2.31 7.17 2.3 7.17 2.29 7.18C2.27 7.18 2.25 7.18 2.22 7.18C2.21 7.18 2.19 7.18 2.17 7.18C2.16 7.19 2.15 7.19 2.14 7.19C2.12 7.19 2.09 7.19 2.07 7.19C2.07 7.2 2.06 7.2 2.05 7.2C2.01 7.2 1.96 7.21 1.92 7.21C1.91 7.21 1.91 7.21 1.9 7.21C1.82 7.22 1.74 7.24 1.66 7.25C1.58 7.26 1.49 7.27 1.41 7.29C1.4 7.29 1.38 7.29 1.37 7.29C1.36 7.29 1.36 7.29 1.35 7.3C1.32 7.3 1.29 7.31 1.26 7.31C1.24 7.31 1.21 7.32 1.19 7.32C1.17 7.32 1.15 7.33 1.13 7.33C1.07 7.34 1.01 7.35 0.95 7.36C0.92 7.36 0.89 7.37 0.86 7.37C0.83 7.37 0.81 7.38 0.79 7.38C0.69 7.39 0.59 7.41 0.48 7.42C0.56 7.4 0.65 7.37 0.73 7.35C0.74 7.35 0.75 7.35 0.77 7.34C0.78 7.34 0.8 7.33 0.82 7.33C0.9 7.31 0.98 7.29 1.06 7.27C1.08 7.27 1.1 7.26 1.12 7.26C1.13 7.26 1.13 7.26 1.13 7.26C1.16 7.25 1.19 7.24 1.22 7.24C1.24 7.23 1.26 7.23 1.28 7.22C1.31 7.22 1.35 7.21 1.39 7.2C1.41 7.2 1.44 7.19 1.46 7.19C1.44 7.19 1.41 7.19 1.39 7.19C1.34 7.2 1.29 7.2 1.24 7.21C1.22 7.21 1.2 7.21 1.17 7.21C1.15 7.22 1.14 7.22 1.12 7.22C1.1 7.22 1.07 7.22 1.05 7.22C1.02 7.23 0.98 7.23 0.95 7.23C0.83 7.24 0.72 7.25 0.61 7.26C0.59 7.26 0.57 7.26 0.55 7.26C0.54 7.26 0.53 7.26 0.51 7.26C0.5 7.26 0.48 7.26 0.47 7.27C0.45 7.27 0.42 7.27 0.4 7.27C0.29 7.27 0.18 7.28 0.08 7.28C0.18 7.25 0.29 7.23 0.39 7.21C0.41 7.21 0.43 7.2 0.44 7.2C0.45 7.2 0.46 7.2 0.47 7.2C0.48 7.2 0.49 7.19 0.5 7.19C0.54 7.19 0.58 7.18 0.63 7.17C0.67 7.17 0.7 7.16 0.74 7.16C0.78 7.15 0.81 7.15 0.85 7.15C0.89 7.14 0.94 7.14 0.99 7.13C1.01 7.13 1.04 7.13 1.06 7.12C1.07 7.12 1.08 7.12 1.09 7.12C1.08 7.12 1.07 7.12 1.06 7.12C1.03 7.12 1.01 7.12 0.98 7.13C0.92 7.13 0.87 7.13 0.81 7.13C0.77 7.13 0.72 7.13 0.68 7.13C0.66 7.13 0.65 7.13 0.64 7.13C0.6 7.13 0.55 7.13 0.51 7.13C0.5 7.13 0.48 7.13 0.47 7.13C0.44 7.13 0.41 7.13 0.38 7.13C0.35 7.13 0.32 7.12 0.29 7.12C0.23 7.12 0.16 7.11 0.09 7.1C0.05 7.1 0.01 7.09 -0.04 7.09C-0.09 7.08 -0.13 7.07 -0.18 7.06C-0.13 7.06 -0.09 7.05 -0.04 7.05C0 7.05 0.05 7.04 0.09 7.04C0.11 7.04 0.12 7.04 0.14 7.04C0.22 7.03 0.29 7.03 0.37 7.02C0.38 7.02 0.4 7.02 0.41 7.02C0.43 7.02 0.44 7.02 0.46 7.02C0.48 7.02 0.49 7.02 0.51 7.02C0.52 7.02 0.53 7.02 0.54 7.02C0.58 7.02 0.62 7.02 0.66 7.02C0.68 7.02 0.71 7.02 0.73 7.02C0.76 7.02 0.78 7.02 0.8 7.02C0.9 7.02 1 7.02 1.1 7.02C1.2 7.02 1.31 7.02 1.41 7.02C1.42 7.02 1.42 7.02 1.43 7.02C1.54 7.02 1.65 7.02 1.77 7.02C1.83 7.02 1.9 7.02 1.97 7.02ZM1.75 7.06C1.82 7.06 1.89 7.05 1.97 7.04C2.02 7.04 2.07 7.03 2.13 7.03C2.08 7.03 2.02 7.04 1.97 7.04C1.89 7.05 1.82 7.06 1.75 7.07C1.69 7.07 1.64 7.08 1.59 7.08C1.53 7.09 1.46 7.09 1.4 7.1C1.3 7.11 1.21 7.11 1.11 7.12C1.1 7.12 1.09 7.12 1.09 7.12C1.09 7.12 1.1 7.12 1.11 7.12C1.21 7.11 1.3 7.1 1.4 7.09C1.46 7.09 1.52 7.08 1.58 7.08C1.63 7.07 1.69 7.07 1.75 7.06ZM1.73 7.14C1.8 7.13 1.87 7.12 1.95 7.12C2.01 7.11 2.07 7.11 2.13 7.1C2.14 7.1 2.15 7.1 2.16 7.1C2.19 7.1 2.22 7.1 2.26 7.1C2.28 7.1 2.3 7.1 2.33 7.1C2.3 7.1 2.27 7.1 2.24 7.11C2.21 7.11 2.18 7.11 2.15 7.12C2.14 7.12 2.14 7.12 2.13 7.12C2.07 7.12 2 7.13 1.94 7.14C1.88 7.14 1.82 7.15 1.77 7.16C1.74 7.16 1.72 7.16 1.7 7.16C1.62 7.17 1.54 7.18 1.46 7.19C1.54 7.17 1.63 7.16 1.71 7.15C1.72 7.15 1.73 7.14 1.73 7.14ZM2.92 8.4C2.9 8.44 2.89 8.47 2.88 8.5C2.87 8.52 2.87 8.53 2.86 8.55C2.84 8.59 2.82 8.64 2.8 8.68C2.79 8.7 2.78 8.72 2.77 8.74C2.77 8.74 2.77 8.75 2.77 8.75C2.74 8.84 2.71 8.93 2.67 9.02C2.65 9.06 2.62 9.1 2.6 9.14C2.61 9.11 2.62 9.07 2.64 9.03C2.67 8.95 2.72 8.85 2.77 8.75C2.77 8.75 2.77 8.74 2.77 8.74C2.78 8.72 2.78 8.7 2.79 8.67C2.81 8.62 2.82 8.57 2.84 8.52C2.84 8.51 2.85 8.49 2.85 8.48C2.86 8.45 2.87 8.43 2.88 8.4C2.87 8.43 2.86 8.45 2.85 8.47C2.84 8.48 2.83 8.5 2.82 8.51C2.8 8.55 2.78 8.59 2.76 8.63C2.75 8.66 2.73 8.69 2.72 8.72C2.65 8.85 2.58 8.97 2.52 9.09C2.52 9.09 2.51 9.1 2.51 9.11C2.49 9.14 2.47 9.17 2.46 9.2C2.45 9.21 2.44 9.23 2.43 9.24C2.4 9.29 2.38 9.34 2.35 9.39C2.32 9.43 2.3 9.46 2.28 9.5C2.27 9.5 2.27 9.51 2.27 9.51C2.27 9.51 2.27 9.5 2.28 9.5C2.3 9.47 2.32 9.43 2.34 9.39C2.37 9.34 2.39 9.29 2.42 9.23C2.43 9.22 2.44 9.2 2.45 9.18C2.45 9.16 2.46 9.15 2.47 9.13C2.48 9.11 2.49 9.09 2.5 9.07C2.53 8.99 2.57 8.9 2.6 8.82C2.56 8.89 2.51 8.97 2.46 9.04C2.45 9.06 2.43 9.09 2.41 9.11C2.39 9.14 2.37 9.17 2.35 9.2C2.35 9.2 2.35 9.21 2.35 9.21C2.29 9.29 2.24 9.37 2.19 9.45C2.17 9.48 2.15 9.51 2.13 9.54C2.13 9.55 2.13 9.55 2.12 9.56C2.11 9.57 2.1 9.59 2.1 9.6C2.07 9.64 2.05 9.68 2.03 9.72C2.01 9.74 2 9.77 1.99 9.79C1.97 9.82 1.95 9.85 1.94 9.89C1.95 9.85 1.97 9.82 1.99 9.79C2 9.77 2.01 9.74 2.03 9.72C2.05 9.68 2.07 9.65 2.09 9.61C2.1 9.59 2.11 9.57 2.12 9.55C2.12 9.55 2.12 9.55 2.12 9.55C2.14 9.52 2.16 9.48 2.18 9.45C2.22 9.38 2.26 9.31 2.3 9.24C2.31 9.22 2.32 9.21 2.33 9.19C2.35 9.15 2.38 9.11 2.4 9.07C2.41 9.05 2.42 9.04 2.43 9.02C2.5 8.9 2.57 8.79 2.63 8.68C2.63 8.68 2.63 8.67 2.64 8.67C2.63 8.67 2.63 8.67 2.63 8.68C2.55 8.78 2.47 8.88 2.39 8.99C2.39 9 2.38 9.01 2.37 9.02C2.35 9.06 2.32 9.11 2.29 9.15Q2.28 9.16 2.28 9.16Q2.22 9.25 2.17 9.33Q2.14 9.37 2.12 9.41Q2.1 9.44 2.08 9.47Q2.03 9.56 1.98 9.65Q1.97 9.65 1.97 9.66Q1.96 9.67 1.96 9.68Q1.94 9.7 1.93 9.73Q1.9 9.79 1.87 9.85C1.89 9.81 1.91 9.77 1.93 9.73C1.94 9.71 1.95 9.7 1.96 9.68C1.96 9.68 1.96 9.67 1.97 9.66C1.97 9.66 1.97 9.65 1.98 9.65C2.01 9.59 2.05 9.53 2.08 9.47C2.09 9.45 2.11 9.43 2.12 9.41C2.14 9.38 2.15 9.36 2.17 9.33C2.2 9.28 2.24 9.22 2.28 9.16C2.28 9.16 2.28 9.15 2.29 9.15Q2.33 9.08 2.37 9.02Q2.38 9 2.39 8.99Q2.5 8.83 2.62 8.67Q2.65 8.63 2.68 8.59C2.69 8.58 2.69 8.56 2.7 8.55C2.72 8.52 2.74 8.49 2.75 8.46C2.76 8.44 2.77 8.42 2.78 8.41C2.79 8.38 2.81 8.36 2.82 8.33C2.83 8.31 2.84 8.29 2.85 8.28C2.85 8.27 2.86 8.26 2.86 8.26C2.86 8.26 2.85 8.27 2.85 8.28C2.84 8.29 2.83 8.31 2.82 8.33C2.81 8.36 2.8 8.38 2.79 8.41C2.78 8.43 2.77 8.44 2.76 8.46C2.75 8.48 2.74 8.5 2.74 8.51C2.75 8.5 2.76 8.48 2.77 8.47C2.78 8.45 2.79 8.44 2.8 8.43C2.82 8.4 2.84 8.38 2.85 8.36C2.87 8.34 2.88 8.33 2.89 8.32C2.89 8.31 2.9 8.3 2.91 8.29C2.92 8.28 2.92 8.27 2.93 8.26C2.93 8.25 2.94 8.25 2.94 8.24C2.95 8.24 2.96 8.23 2.96 8.22C2.97 8.22 2.97 8.21 2.97 8.21C2.97 8.21 2.97 8.2 2.98 8.2C2.98 8.2 2.98 8.19 2.99 8.19C2.99 8.19 2.99 8.19 2.99 8.18C2.99 8.19 2.99 8.19 2.99 8.19C2.99 8.2 2.99 8.2 2.98 8.21C2.98 8.21 2.98 8.22 2.98 8.23C2.98 8.23 2.97 8.24 2.97 8.24C2.97 8.24 2.97 8.25 2.97 8.25L2.97 8.25C2.96 8.27 2.96 8.29 2.95 8.31C2.94 8.34 2.93 8.37 2.92 8.39C2.92 8.4 2.92 8.4 2.92 8.4ZM2.9 8.36C2.9 8.37 2.89 8.37 2.89 8.38C2.89 8.39 2.88 8.4 2.88 8.4C2.88 8.4 2.88 8.39 2.89 8.38C2.89 8.37 2.9 8.36 2.9 8.35C2.91 8.33 2.92 8.31 2.93 8.3C2.93 8.28 2.94 8.27 2.95 8.26C2.95 8.25 2.95 8.25 2.95 8.25C2.96 8.24 2.96 8.23 2.97 8.22C2.97 8.22 2.97 8.22 2.97 8.22C2.97 8.21 2.98 8.21 2.98 8.2C2.98 8.2 2.98 8.19 2.99 8.19C2.99 8.19 2.99 8.19 2.99 8.18C2.99 8.19 2.99 8.19 2.99 8.19C2.99 8.19 2.98 8.2 2.98 8.2C2.98 8.21 2.97 8.21 2.97 8.22C2.97 8.22 2.97 8.23 2.97 8.23C2.96 8.24 2.96 8.24 2.96 8.25C2.96 8.25 2.96 8.25 2.95 8.25C2.95 8.27 2.94 8.28 2.93 8.3C2.92 8.32 2.91 8.34 2.9 8.36ZM2.98 8.01C2.96 8.02 2.95 8.04 2.93 8.05C2.93 8.05 2.92 8.06 2.92 8.06L2.91 8.06C2.91 8.07 2.9 8.07 2.9 8.07L2.9 8.07L2.9 8.07C2.89 8.08 2.89 8.08 2.88 8.09C2.88 8.09 2.88 8.09 2.87 8.1C2.87 8.1 2.86 8.1 2.86 8.11C2.85 8.12 2.84 8.13 2.83 8.14C2.82 8.14 2.82 8.14 2.82 8.14C2.81 8.15 2.81 8.15 2.81 8.15C2.8 8.16 2.78 8.17 2.77 8.18C2.77 8.19 2.76 8.2 2.75 8.2C2.74 8.22 2.72 8.23 2.71 8.24C2.69 8.26 2.68 8.27 2.66 8.29C2.65 8.29 2.64 8.3 2.63 8.31C2.61 8.33 2.6 8.34 2.58 8.36C2.57 8.37 2.56 8.37 2.56 8.38C2.51 8.42 2.46 8.46 2.41 8.49C2.35 8.54 2.28 8.59 2.2 8.64C2.27 8.59 2.34 8.54 2.41 8.48C2.45 8.45 2.49 8.41 2.54 8.37C2.54 8.36 2.55 8.36 2.56 8.35C2.57 8.34 2.58 8.33 2.59 8.32C2.61 8.3 2.62 8.29 2.64 8.27C2.66 8.26 2.67 8.24 2.69 8.23C2.7 8.22 2.72 8.2 2.73 8.19C2.74 8.19 2.75 8.18 2.75 8.18C2.77 8.16 2.78 8.15 2.8 8.14L2.8 8.13C2.8 8.13 2.81 8.13 2.81 8.13C2.82 8.12 2.83 8.11 2.84 8.1C2.85 8.1 2.86 8.09 2.86 8.09C2.87 8.09 2.87 8.08 2.87 8.08C2.88 8.08 2.89 8.07 2.89 8.07L2.89 8.07C2.9 8.06 2.9 8.06 2.91 8.06L2.91 8.05C2.92 8.05 2.92 8.05 2.93 8.04C2.94 8.03 2.96 8.02 2.98 8.01C3 7.99 3.03 7.98 3.06 7.96C3.03 7.98 3 7.99 2.98 8.01C2.96 8.02 2.94 8.03 2.93 8.04C2.92 8.05 2.92 8.05 2.91 8.05L2.91 8.06C2.9 8.06 2.9 8.06 2.89 8.06L2.89 8.06C2.89 8.07 2.88 8.07 2.87 8.08C2.87 8.08 2.87 8.08 2.86 8.09C2.85 8.09 2.85 8.1 2.84 8.1C2.83 8.11 2.81 8.12 2.8 8.13L2.8 8.13C2.8 8.13 2.8 8.13 2.79 8.13C2.78 8.15 2.76 8.16 2.74 8.17C2.74 8.18 2.73 8.18 2.72 8.19C2.71 8.2 2.69 8.21 2.68 8.22C2.66 8.23 2.65 8.24 2.63 8.26C2.6 8.28 2.57 8.3 2.54 8.33C2.54 8.33 2.53 8.33 2.53 8.33C2.52 8.34 2.52 8.34 2.51 8.35C2.47 8.38 2.42 8.42 2.38 8.45C2.31 8.5 2.25 8.55 2.18 8.6C2.13 8.64 2.08 8.68 2.03 8.72C1.95 8.77 1.88 8.82 1.8 8.86C1.88 8.82 1.95 8.77 2.03 8.72C2.08 8.68 2.13 8.64 2.18 8.6C2.25 8.55 2.31 8.49 2.37 8.44C2.42 8.41 2.46 8.37 2.5 8.34C2.5 8.34 2.51 8.33 2.51 8.33L2.51 8.33C2.55 8.3 2.58 8.27 2.62 8.24C2.63 8.23 2.65 8.22 2.66 8.21C2.68 8.2 2.69 8.19 2.71 8.18C2.71 8.17 2.72 8.17 2.72 8.17C2.74 8.15 2.76 8.14 2.78 8.13C2.78 8.13 2.78 8.13 2.79 8.12C2.79 8.12 2.79 8.12 2.79 8.12C2.81 8.11 2.82 8.1 2.83 8.1C2.84 8.09 2.85 8.09 2.85 8.08C2.86 8.08 2.86 8.08 2.87 8.07C2.87 8.07 2.88 8.06 2.89 8.06C2.89 8.06 2.9 8.05 2.9 8.05L2.91 8.05C2.91 8.04 2.92 8.04 2.92 8.04L2.91 8.05L2.9 8.05L2.89 8.06L2.87 8.07L2.85 8.08L2.83 8.09L2.79 8.11L2.78 8.12L2.77 8.12C2.75 8.14 2.73 8.15 2.71 8.16L2.7 8.17C2.68 8.18 2.66 8.19 2.65 8.2C2.63 8.21 2.62 8.22 2.6 8.22C2.56 8.25 2.51 8.28 2.47 8.3C2.47 8.3 2.46 8.31 2.46 8.31C2.44 8.32 2.42 8.33 2.4 8.34C2.38 8.36 2.36 8.37 2.34 8.38C2.27 8.42 2.21 8.47 2.14 8.51C2.07 8.55 2 8.6 1.94 8.65C1.88 8.69 1.82 8.73 1.77 8.78L1.76 8.78C1.76 8.78 1.76 8.78 1.76 8.78C1.68 8.84 1.61 8.91 1.54 8.97C1.49 9.01 1.45 9.05 1.41 9.09C1.45 9.04 1.5 8.99 1.55 8.95L1.55 8.94C1.62 8.88 1.69 8.82 1.76 8.77C1.76 8.76 1.77 8.76 1.77 8.76C1.78 8.75 1.78 8.75 1.78 8.75C1.83 8.71 1.88 8.68 1.93 8.64C1.99 8.6 2.07 8.55 2.14 8.5C2.2 8.46 2.27 8.42 2.33 8.38C2.35 8.37 2.37 8.36 2.39 8.34C2.42 8.33 2.44 8.32 2.46 8.31L2.47 8.3C2.51 8.28 2.56 8.25 2.6 8.22C2.62 8.22 2.63 8.21 2.64 8.2C2.66 8.19 2.68 8.18 2.7 8.17L2.71 8.16C2.73 8.15 2.75 8.14 2.77 8.12L1.21 9.02C1.23 9.01 1.25 9 1.26 8.99C1.28 8.98 1.29 8.97 1.3 8.96C1.31 8.96 1.32 8.95 1.33 8.94L1.34 8.94C1.38 8.92 1.42 8.89 1.47 8.86C1.48 8.85 1.49 8.84 1.5 8.84C1.55 8.8 1.6 8.77 1.65 8.73C1.66 8.72 1.68 8.72 1.69 8.71C1.7 8.7 1.71 8.69 1.72 8.68C1.76 8.66 1.8 8.63 1.84 8.6C1.85 8.59 1.86 8.58 1.87 8.58C1.89 8.57 1.9 8.56 1.91 8.55C1.97 8.5 2.04 8.46 2.1 8.41C2.12 8.4 2.14 8.38 2.16 8.37C2.2 8.34 2.24 8.31 2.28 8.28C2.3 8.26 2.33 8.25 2.35 8.23C2.35 8.23 2.35 8.23 2.35 8.23C2.38 8.21 2.41 8.19 2.44 8.17C2.45 8.16 2.45 8.16 2.46 8.15C2.47 8.15 2.48 8.14 2.49 8.13C2.5 8.13 2.5 8.13 2.5 8.13C2.51 8.12 2.52 8.11 2.53 8.11C2.53 8.1 2.54 8.1 2.55 8.09C2.55 8.09 2.55 8.09 2.55 8.09C2.56 8.09 2.56 8.08 2.57 8.08C2.58 8.08 2.58 8.07 2.59 8.07C2.6 8.06 2.61 8.05 2.62 8.05C2.62 8.04 2.63 8.04 2.63 8.04C2.65 8.03 2.66 8.02 2.67 8.01C2.69 8 2.7 7.99 2.72 7.98C2.72 7.98 2.73 7.98 2.73 7.98C2.74 7.97 2.74 7.97 2.75 7.96C2.76 7.96 2.77 7.95 2.78 7.94C2.79 7.93 2.81 7.92 2.83 7.91C2.84 7.91 2.85 7.9 2.86 7.89C2.88 7.88 2.91 7.87 2.93 7.85C2.95 7.84 2.97 7.83 2.99 7.82C3.12 7.74 3.19 7.89 3.06 7.96C3.03 7.98 3 7.99 2.98 8.01ZM2.79 8.48C2.77 8.52 2.75 8.56 2.73 8.59C2.71 8.63 2.69 8.67 2.67 8.7C2.65 8.74 2.63 8.78 2.6 8.82C2.62 8.78 2.64 8.74 2.66 8.69C2.67 8.66 2.69 8.62 2.7 8.58C2.68 8.61 2.66 8.64 2.64 8.67C2.65 8.64 2.67 8.61 2.68 8.59C2.69 8.58 2.7 8.57 2.7 8.56C2.71 8.54 2.72 8.53 2.74 8.51C2.73 8.53 2.72 8.55 2.71 8.57C2.71 8.57 2.71 8.58 2.7 8.58C2.71 8.58 2.71 8.58 2.71 8.57C2.74 8.54 2.77 8.51 2.79 8.48ZM5.57 10.56L4.31 7.8C4.33 7.84 4.35 7.89 4.37 7.93C4.38 7.94 4.38 7.95 4.39 7.96C4.39 7.97 4.4 7.99 4.41 8C4.41 8.01 4.42 8.02 4.42 8.03C4.55 8.3 4.68 8.56 4.82 8.82C4.92 9.01 5.02 9.21 5.11 9.39C5.2 9.59 5.29 9.77 5.37 9.95C5.37 9.96 5.37 9.96 5.37 9.97C5.38 9.98 5.38 10 5.39 10.01C5.41 10.05 5.42 10.09 5.44 10.13C5.47 10.21 5.49 10.29 5.52 10.36C5.54 10.43 5.56 10.49 5.57 10.56ZM5.86 10.83C5.94 10.77 6.02 10.7 6.1 10.62C6.16 10.59 6.22 10.56 6.28 10.53C6.33 10.5 6.38 10.49 6.43 10.47C6.59 10.43 6.77 10.47 6.96 10.68C7.03 10.89 7.09 11.09 7.16 11.3C7.32 11.79 7.49 12.27 7.68 12.74C7.75 12.92 7.83 13.09 7.9 13.27C7.94 13.34 7.97 13.41 8 13.48C8.13 13.74 8.27 14 8.42 14.25C8.21 14.17 8.09 14.2 7.99 14.27C7.95 14.29 7.91 14.32 7.88 14.35C7.82 14.39 7.77 14.44 7.7 14.48L7.17 14.78C7.14 14.7 7.12 14.62 7.09 14.53C7.08 14.5 7.07 14.46 7.05 14.42C6.99 14.24 6.92 14.05 6.85 13.87C6.59 13.2 6.27 12.53 5.87 11.85C5.84 11.8 5.82 11.76 5.79 11.72C5.76 11.67 5.74 11.63 5.71 11.58C5.31 11.26 5.47 11.13 5.77 10.9C5.79 10.88 5.81 10.87 5.83 10.85C5.84 10.85 5.85 10.84 5.86 10.83ZM7.09 13.73C7.12 13.8 7.14 13.86 7.17 13.93C7.22 14.07 7.27 14.21 7.3 14.34L6.04 11.58C6.06 11.62 6.08 11.67 6.1 11.71C6.24 12.02 6.4 12.31 6.54 12.6C6.65 12.8 6.75 13 6.85 13.2C6.94 13.38 7.02 13.56 7.09 13.73Z" fill="#FE9013" fill-opacity="1.000000" fill-rule="evenodd"/>
</svg>
