<svg width="37.000000" height="37.000000" viewBox="0 0 37 37" fill="none" xmlns="http://www.w3.org/2000/svg" xmlns:xlink="http://www.w3.org/1999/xlink">
	<desc>
			Created with Pixso.
	</desc>
	<defs/>
	<path id="Vector" d="M37 18.5C37 8.30444 28.6956 0 18.5 0C8.30444 0 0 8.30444 0 18.5C0 24.6256 3.00122 30.0934 7.64673 33.4645C7.729 33.5466 7.81104 33.5878 7.89331 33.6289C10.8945 35.7667 14.5532 37 18.5 37C22.4468 37 26.1055 35.7667 29.1067 33.6289C29.189 33.5878 29.271 33.5056 29.3533 33.4645C33.9988 30.0934 37 24.6256 37 18.5ZM9.04443 32.4366L9.04443 31.6555C9.04443 26.4344 13.2788 22.2 18.5 22.2C23.7212 22.2 27.9556 26.4344 27.9556 31.6555L27.9556 32.4366C25.2422 34.2866 21.9944 35.3556 18.5 35.3556C15.0056 35.3556 11.7578 34.2866 9.04443 32.4366ZM13.5667 15.6222C13.5667 12.9089 15.7866 10.6888 18.5 10.6888C21.2134 10.6888 23.4333 12.9089 23.4333 15.6222C23.4333 18.3356 21.2134 20.5555 18.5 20.5555C15.7866 20.5555 13.5667 18.3356 13.5667 15.6222ZM29.6001 31.1622C29.3945 26.4756 26.311 22.5699 22.0767 21.1311C23.8855 19.98 25.0779 17.9244 25.0779 15.6222C25.0779 12.0044 22.1177 9.04443 18.5 9.04443C14.8823 9.04443 11.9221 12.0044 11.9221 15.6222C11.9221 17.9244 13.1145 19.98 14.9233 21.1311C10.689 22.5699 7.60547 26.5167 7.3999 31.1622C3.8645 28.0789 1.64453 23.5566 1.64453 18.5C1.64453 9.20886 9.20898 1.64441 18.5 1.64441C27.791 1.64441 35.3555 9.20886 35.3555 18.5C35.3555 23.5566 33.1355 28.0789 29.6001 31.1622Z" fill="#767474" fill-opacity="1.000000" fill-rule="nonzero"/>
</svg>
