<svg width="16.000000" height="14.000000" viewBox="0 0 16 14" fill="none" xmlns="http://www.w3.org/2000/svg" xmlns:xlink="http://www.w3.org/1999/xlink">
	<desc>
			Created with Pixso.
	</desc>
	<defs/>
	<path id="Fill 172" d="M16 1.65723C15.4114 1.93799 14.7788 2.12842 14.1147 2.21387C14.7922 1.77637 15.313 1.0835 15.5579 0.258301C14.9236 0.663086 14.2212 0.95752 13.4734 1.11621C12.8748 0.429199 12.0215 0 11.0774 0C9.26465 0 7.79492 1.58203 7.79492 3.53418C7.79492 3.81104 7.82373 4.08105 7.87988 4.33984C5.15161 4.19238 2.73291 2.78516 1.11401 0.646484C0.831299 1.16895 0.669434 1.77588 0.669434 2.42383C0.669434 3.6499 1.24902 4.73145 2.12964 5.36572C1.5918 5.34717 1.08545 5.18799 0.643066 4.92334C0.642822 4.93799 0.642822 4.95312 0.642822 4.96777C0.642822 6.68018 1.77417 8.1084 3.27588 8.43359C3.00049 8.51416 2.71045 8.55762 2.41113 8.55762C2.19946 8.55762 1.9939 8.53516 1.79346 8.49414C2.21118 9.89795 3.42334 10.9199 4.85986 10.9487C3.73657 11.8965 2.32104 12.4614 0.782959 12.4614C0.518066 12.4614 0.256836 12.4448 0 12.4121C1.45264 13.415 3.17822 14 5.03174 14C11.0698 14 14.3716 8.61426 14.3716 3.94385C14.3716 3.79053 14.3684 3.63818 14.3621 3.48682C15.0034 2.98828 15.5601 2.36572 16 1.65723Z" fill="#FFFFFF" fill-opacity="1.000000" fill-rule="evenodd"/>
</svg>
