<svg width="18.000000" height="12.986328" viewBox="0 0 18 12.9863" fill="none" xmlns="http://www.w3.org/2000/svg" xmlns:xlink="http://www.w3.org/1999/xlink">
	<desc>
			Created with Pixso.
	</desc>
	<defs/>
	<path id="Fill 213" d="M14.7637 12.79C15.7668 12.5796 16.9624 12.375 17.5212 10.7852C18.1304 9.05225 18.0928 4.50049 17.772 2.76562C17.574 1.69385 17.1748 0.554688 15.2649 0.259277C13.2051 -0.0595703 6.65137 -0.112305 2.73071 0.259277C1.271 0.397461 0.521973 1.07422 0.223877 2.51514C-0.0839844 4.00293 -0.0649414 8.31641 0.223877 9.78271C0.675049 12.0742 1.26709 12.2144 2.22925 12.5396C3.77246 13.061 13.2852 13.1001 14.7637 12.79ZM7.4939 3.51709L12.0063 5.77295C12.9392 6.42822 12.0063 7.02588 12.0063 7.02588C12.0063 7.02588 8.3501 8.92383 7.4939 9.28174C6.26367 9.79541 6.24048 9.03125 6.24048 9.03125L6.24048 4.01855C6.24048 2.94727 7.4939 3.51709 7.4939 3.51709Z" clip-rule="evenodd" fill="#FFFFFF" fill-opacity="1.000000" fill-rule="evenodd"/>
</svg>
